# xmcd CD database file
#
# Track frame offsets:
#	150
#	23229
#	51851
#	70828
#	94139
#	116642
#	134016
#	154620
#	170222
#	184538
#	201263
#
# Disc length: 2971 seconds
#
# Revision: 0
# Processed by: cddbd v1.5.2PL0 Copyright (c) Steve Scherf et al.
# Submitted via: CDex 1.51
#
DISCID=9d0b990b
DTITLE=Silje Nergaard - Unclouded
DYEAR=2012
DGENRE=Jazz
TTITLE0=All I Had
TTITLE1=Norwegian Boatsong
TTITLE2=Gods Mistakes
TTITLE3=The Moons a Harsh Mistress
TTITLE4=Ordinary Sadness
TTITLE5=When the Morning Comes
TTITLE6=Det var for sent
TTITLE7=When Our Tune Is Played
TTITLE8=He Must Have Been Telling a Lie
TTITLE9=I Will Write You Every Day
TTITLE10=Human
EXTD=YEAR: 2012
EXTT0=
EXTT1=
EXTT2=
EXTT3=
EXTT4=
EXTT5=
EXTT6=
EXTT7=
EXTT8=
EXTT9=
EXTT10=
PLAYORDER=
